<svg width="19" height="19" viewBox="0 0 19 19" fill="none" xmlns="http://www.w3.org/2000/svg">
<path d="M14 3.625V0.25H10.0625C9.11328 0.25 8.375 1.02344 8.375 1.9375V12.0625C8.375 13.0117 9.11328 13.75 10.0625 13.75H16.8125C17.7266 13.75 18.5 13.0117 18.5 12.0625V4.75H15.125C14.4922 4.75 14 4.25781 14 3.625ZM15.125 0.25V3.625H18.5L15.125 0.25ZM7.25 12.625V4.75H2.1875C1.23828 4.75 0.5 5.52344 0.5 6.4375V16.5625C0.5 17.5117 1.23828 18.25 2.1875 18.25H8.9375C9.85156 18.25 10.625 17.5117 10.625 16.5625V14.875H9.5C8.23438 14.875 7.25 13.8906 7.25 12.625Z" fill="white"/>
</svg>
