<svg width="181" height="78" viewBox="0 0 181 78" fill="none" xmlns="http://www.w3.org/2000/svg">
<path fill-rule="evenodd" clip-rule="evenodd" d="M76.1788 0.0626912C69.1433 1.08922 64.4091 4.49786 62.1123 10.1909C60.7162 13.6505 60.4004 18.1799 61.3498 21.1261C62.0293 23.2355 63.0634 24.9605 64.5935 26.538C67.4357 29.4678 70.6833 31.0293 74.9272 31.5069C76.7057 31.7069 77.4968 31.6966 79.7329 31.4444C81.2384 31.2748 82.5057 31.2161 82.6292 31.3107C83.4283 31.9218 89.668 31.9924 90.2564 31.397C90.7302 30.9176 91.0516 28.8801 91.2903 24.8433C91.575 20.0263 91.3994 16.6342 90.8378 16.1048C90.271 15.5704 88.0375 15.2475 85.7311 15.3663C83.3574 15.4885 81.9504 15.7923 81.1147 16.3629C80.5662 16.7372 80.444 16.9902 80.147 18.3651C79.7317 20.2868 79.3952 20.6335 77.945 20.6335C75.4457 20.6335 73.3843 19.2508 72.6787 17.1014C72.0626 15.2242 72.7994 12.9511 74.4132 11.7502C75.4132 11.006 77.3708 10.3879 78.728 10.3879C79.7371 10.3879 79.786 10.4127 80.0545 11.0629C80.3012 11.6605 80.4414 11.7549 81.274 11.8832C83.2723 12.1913 88.3424 11.2901 89.3273 10.4516C89.823 10.0295 89.9059 9.82145 89.9059 9.00081C89.9059 4.60386 87.4832 1.81607 82.525 0.508572C81.0939 0.131258 77.4596 -0.124291 76.1788 0.0626912ZM50.8663 0.259722C49.1192 0.514681 46.6228 1.20587 46.0595 1.59067L45.4144 2.03123V3.79604C45.4144 4.76661 45.48 6.31429 45.5603 7.23541L45.7059 8.91018L44.407 7.43244C41.9079 4.58948 39.9678 2.78349 38.7769 2.19181C37.647 1.63047 37.5675 1.62003 34.4132 1.62298C30.2532 1.62672 27.302 2.25151 26.9404 3.20514C26.874 3.3805 26.8195 4.9132 26.8197 6.61122C26.8201 13.712 28.2825 26.6623 29.5756 31.0159C30.1292 32.8798 30.2976 32.9525 34.0238 32.934C37.2755 32.918 39.097 32.5287 39.6071 31.7408C39.8805 31.3185 40.2176 27.1884 40.2462 23.909L40.2546 22.9483L44.0096 26.67C48.4786 31.0994 49.1353 31.5855 50.9125 31.778C53.4262 32.0505 57.3804 31.5644 58.2145 30.8803L58.6548 30.5194L58.6433 20.4044C58.631 9.65338 58.2556 2.08719 57.691 1.21375C57.5465 0.990314 57.0543 0.694176 56.5971 0.555663C55.7551 0.300311 51.9384 0.10328 50.8663 0.259722ZM105.981 1.54102C103.73 1.72839 102.379 1.99517 101.469 2.43199C100.937 2.68734 100.646 3.10406 99.8551 4.74317C97.0733 10.5059 93.5472 22.5554 92.8295 28.7514C92.4693 31.8596 92.7906 32.0873 97.7187 32.2174L100.956 32.3027L101.533 31.4433C101.851 30.9704 102.519 29.8221 103.017 28.8913C104.349 26.4018 104.287 26.4379 107.16 26.4875C108.485 26.5106 109.737 26.6197 109.941 26.7305C110.427 26.9939 111.023 28.2628 111.595 30.2552C112.131 32.121 112.516 32.7933 113.197 33.0554C113.856 33.3089 120.97 33.2938 121.885 33.0368C123.239 32.6562 123.288 32.0054 122.324 27.1789C120.519 18.1338 118.05 9.34759 116.166 5.2651C114.723 2.13585 114.142 1.83479 108.793 1.44388C108.311 1.40861 107.046 1.45235 105.981 1.54102ZM15.4289 2.92969C12.0976 3.15253 5.8701 3.98499 3.0647 4.58239C0.537155 5.12068 0.245668 5.33091 0.0326534 6.76924C-0.207036 8.38686 0.912753 18.3974 2.08375 25.1065C2.7187 28.7431 3.58633 32.5192 4.07019 33.7501C4.61324 35.1321 5.0418 35.4052 6.66686 35.4048C11.4634 35.404 23.4214 33.6461 25.5642 32.6268C26.2914 32.2808 26.4178 32.1262 26.5319 31.4431C26.705 30.4069 26.483 27.8394 26.0402 25.7563C25.5067 23.2456 25.4006 23.0422 24.5404 22.8785C23.9165 22.7599 17.0234 23.3878 15.5967 23.6932C15.2565 23.7661 15.1648 23.6739 15.0944 23.1884C15.0246 22.7079 15.0854 22.5786 15.4133 22.5106C15.636 22.4645 16.5054 22.2933 17.3454 22.1302C19.1148 21.7866 19.3654 21.624 19.5349 20.7086C19.7049 19.7922 19.1105 16.5993 18.5674 15.5107L18.125 14.6241L16.1024 14.5675C14.0606 14.5104 13.7832 14.4079 13.7767 13.7085C13.7744 13.4486 14.1124 13.3398 15.4775 13.1611C19.0643 12.692 21.9686 12.1624 22.5099 11.8792C22.9967 11.6245 23.0919 11.4336 23.2101 10.4768C23.4475 8.55434 22.8923 3.77377 22.3703 3.24553C21.865 2.73424 19.7725 2.63907 15.4289 2.92969ZM138 3.88687C132.805 4.39541 128.019 7.3091 125.554 11.4631C124.136 13.8535 123.01 17.9667 123.008 20.764C123.006 23.4952 124.127 26.6861 125.836 28.8103C128.357 31.9433 131.08 33.7081 134.997 34.7463C136.703 35.1987 137.338 35.2615 140.434 35.2854C142.361 35.3001 144.051 35.386 144.189 35.4763C144.65 35.7777 147.813 36.1974 149.629 36.1982C151.714 36.1992 151.782 36.1458 152.285 34.1302C152.684 32.5293 153.327 27.0158 153.476 23.9153C153.623 20.8518 153.531 20.6329 151.879 20.1151C151.014 19.8444 150.077 19.7613 147.833 19.7567C143.515 19.7479 142.811 20.0472 142.351 22.0866C142.191 22.7952 141.877 23.6111 141.652 23.9001C141.268 24.3952 141.17 24.4199 139.959 24.3324C138.42 24.2209 137.164 23.6926 136.271 22.7822C133.805 20.2645 134.624 16.2898 137.915 14.8095C139.077 14.2866 140.764 14.0369 141.864 14.2249C142.528 14.3384 142.659 14.4403 142.71 14.8812C142.807 15.7259 143.437 15.8987 146.431 15.9018C151.044 15.9069 152.799 15.2447 152.796 13.5006C152.792 10.9841 151.954 8.58547 150.621 7.27423C148.94 5.62035 145.671 4.25413 142.521 3.88904C140.665 3.67388 140.179 3.67368 138 3.88687ZM159.763 6.79544C158.646 6.94519 158.265 7.97783 157.379 13.2437C156.138 20.6306 155.332 28.5564 155.33 33.4002C155.329 36.8062 155.377 36.8886 157.77 37.5414C161.281 38.4991 169.454 39.6939 173.769 39.8803C177.081 40.0234 177.341 39.9229 177.818 38.3177C178.251 36.8644 178.692 33.7852 178.693 32.2091C178.695 30.0682 178.621 30.0305 172.544 29.1033C170.43 28.7808 168.679 28.4943 168.652 28.4667C168.626 28.4389 168.651 28.1656 168.709 27.8595C168.811 27.3237 168.849 27.3068 169.714 27.4118C172.802 27.7864 172.794 27.7866 173.21 27.3655C173.764 26.8049 174.033 25.752 174.151 23.6875C174.22 22.4754 174.169 21.6695 173.99 21.1413C173.716 20.3279 173.316 20.1191 170.76 19.4543C170.019 19.2616 169.932 19.1777 169.932 18.6518C169.932 18.145 169.992 18.0782 170.37 18.1633C172.988 18.7539 178.613 19.2208 179.21 18.8973C179.966 18.4877 181.106 13.8407 180.992 11.629C180.936 10.5312 180.906 10.4726 180.221 10.1341C178.064 9.06701 168.129 7.18084 163.312 6.9243C162.295 6.86992 161.2 6.80293 160.878 6.77495C160.557 6.74717 160.055 6.75643 159.763 6.79544ZM108.647 14.2793C108.928 14.5774 109.48 15.508 109.873 16.3473C110.999 18.7519 110.615 19.3331 107.91 19.3205C106.419 19.3134 105.573 19.0801 105.24 18.5844C105.021 18.2591 105.268 17.3226 105.918 16.0153C107.103 13.6293 107.685 13.2592 108.647 14.2793ZM67.6115 36.2888C65.4646 36.6673 64.683 36.928 64.0584 37.473L63.5226 37.9404L63.5303 43.4462L63.5381 48.9518L61.4097 49.0827C60.2393 49.1546 59.2574 49.1889 59.2278 49.1589C59.1982 49.129 59.073 47.6859 58.9494 45.952C58.8257 44.2182 58.6018 41.7882 58.4517 40.5522C58.1314 37.9151 57.9036 37.554 56.2298 37.032C54.6747 36.5471 48.8666 36.5667 47.0806 37.063C44.0442 37.9069 42.795 38.5748 42.3863 39.5735C42.0843 40.311 42.2315 42.6344 42.8962 47.6268C44.5886 60.3357 46.9145 71.7148 48.0286 72.7351C48.7268 73.3746 50.9273 73.5451 53.9926 73.1973C57.2663 72.8257 58.2605 72.4764 58.5475 71.5968C58.8701 70.6073 59.1291 68.1852 59.1355 66.0943C59.1427 63.822 58.9852 63.9672 61.9649 63.4827C63.0358 63.3085 64.097 63.1211 64.323 63.0662C64.7136 62.9712 64.7504 63.0963 65.069 65.5915C65.6642 70.255 66.084 71.7144 66.9627 72.1743C67.8239 72.6249 70.6747 72.9065 73.1608 72.7865C75.758 72.661 76.5706 72.4222 76.9541 71.6713C78.0648 69.498 79.5952 53.4128 79.6575 43.2586C79.6877 38.312 79.6741 38.268 77.8251 37.3414C75.632 36.2425 70.7355 35.7377 67.6115 36.2888ZM85.0481 36.995C82.5529 37.3406 82.2518 37.7506 81.8961 41.2893C81.4004 46.2235 81.9777 64.591 82.7797 69.3987C83.1734 71.7586 83.4885 72.3867 84.4036 72.636C85.9547 73.0586 89.0159 73.2617 95.5526 73.3756C102.194 73.4913 106.365 73.3096 108.082 72.8298C109.085 72.5497 109.328 71.8935 109.608 68.7158C109.895 65.4449 109.619 62.291 109.001 61.7847C108.414 61.3033 106.445 61.0251 103.617 61.0239C102.234 61.0233 100.247 60.9656 99.2034 60.8957L97.305 60.7684V60.1324V59.4962L99.764 59.4134C102.588 59.3182 102.821 59.1864 103.065 57.5388C103.243 56.3342 103.036 52.8458 102.728 51.8907C102.396 50.8581 101.933 50.6071 99.9112 50.3628C97.2415 50.04 97.305 50.0637 97.305 49.3963V48.809L102.221 48.798C107.64 48.7855 108.326 48.6764 108.761 47.7561C109.482 46.232 109.879 39.8797 109.324 38.7679C108.703 37.5268 103.917 36.9463 93.7028 36.8736C89.6334 36.8447 85.7387 36.8992 85.0481 36.995ZM115.731 38.3929C114.234 38.5876 113.171 39.0207 112.978 39.5144C112.908 39.6957 112.71 41.4844 112.539 43.4891C112.303 46.2588 112.226 49.7839 112.218 58.168C112.204 72.6632 112.275 73.0856 114.876 73.9756C117.329 74.8145 125.932 75.6109 133.163 75.6683L137.641 75.7037L138.013 75.2409C138.884 74.1578 139.425 71.0053 139.42 67.0344C139.416 63.5887 139.154 62.1986 138.385 61.5439C137.888 61.1215 137.569 61.0501 135.72 60.9481C129.677 60.6153 128.477 60.4914 127.958 60.1471L127.437 59.8019L127.572 57.0145C127.645 55.4816 127.875 51.7448 128.081 48.7105C128.288 45.6762 128.457 42.464 128.458 41.572L128.459 39.9507L127.729 39.5802C125.555 38.4777 119.608 37.8891 115.731 38.3929ZM29.8375 39.3738C25.3812 40.0269 21.9749 44.853 22.7099 49.4722C23.0298 51.4823 23.8624 53.0816 25.2805 54.4102C25.9295 55.0182 26.8014 55.6917 27.2183 55.9068C29.7074 57.1921 33.2837 57.1889 35.7817 55.8993C37.0677 55.2354 38.6645 53.4503 39.4282 51.8232C40.017 50.5687 40.1288 50.0995 40.2088 48.5495C40.3728 45.3745 39.6044 43.3682 37.4793 41.4221C36.1623 40.2161 34.8994 39.6466 32.889 39.3525C31.4279 39.1385 31.4427 39.1385 29.8375 39.3738ZM17.1813 40.5615C12.0541 41.1315 6.21922 42.1206 5.03888 42.6194L4.37296 42.901L4.47403 44.5251C4.52952 45.4183 4.76434 46.791 4.99585 47.5758C5.49626 49.2722 5.58933 49.3185 8.13557 49.1357L9.8465 49.0127L9.97832 49.8468C10.1859 51.159 11.2054 55.7025 11.5333 56.7769C12.0487 58.4653 12.2574 58.6605 13.5478 58.6605C14.9619 58.6605 16.8575 58.3201 17.3978 57.969C18.0682 57.5335 18.0974 56.0373 17.5619 49.5479L17.4198 47.8238H17.9436C18.2317 47.8238 19.0713 47.6849 19.8093 47.5149C21.0593 47.2272 21.1662 47.1606 21.3676 46.5429C21.8362 45.1062 21.5516 41.8713 20.8605 40.78C20.5449 40.2817 19.9919 40.249 17.1813 40.5615ZM147.248 41.2481C145.076 41.681 144.733 41.8006 144.132 42.3338C143.11 43.2421 142.897 44.6812 141.862 57.6754C141.728 59.3551 141.614 63.6996 141.61 67.3299C141.6 75.1128 141.667 75.5587 142.938 76.1626C143.845 76.5933 146.052 77.0733 148.509 77.3738C151.972 77.7974 153.177 77.5718 153.774 76.3878C154.176 75.59 154.903 73.374 155.387 71.4676C155.538 70.8716 155.741 70.3989 155.838 70.4172C159.864 71.1803 162.726 70.7697 165.916 68.9712C169.246 67.0937 171.637 63.9892 172.947 59.8427C173.394 58.4276 173.476 57.8167 173.48 55.9021C173.484 53.9763 173.413 53.4404 173.007 52.3319C172.074 49.7813 170.506 47.7486 168.012 45.8567C165.152 43.687 160.781 42.1777 155.134 41.4103C153.286 41.1593 148.218 41.0548 147.248 41.2481ZM32.5276 46.0736C33.2802 46.4631 33.6254 47.0818 33.6301 48.0492C33.6408 50.3194 30.8319 51.1657 29.6002 49.2633C28.9444 48.2504 29.3231 46.7037 30.3712 46.1146C30.9228 45.8047 31.9694 45.7848 32.5276 46.0736ZM159.385 53.0536C162.243 53.9125 163.271 56.9079 161.401 58.9311C160.657 59.7365 159.816 60.0398 158.328 60.0398C157.102 60.0398 156.995 60.0021 156.402 59.3655C155.719 58.6326 155.523 57.9759 155.525 56.4193C155.527 54.4618 156.135 53.3356 157.397 52.9533C158.193 52.7122 158.261 52.7157 159.385 53.0536ZM36.7498 60.8903C36.1608 61.1364 35.0262 61.7695 34.2285 62.2973C32.2237 63.624 29.7773 64.8357 27.6669 65.5472C26.1382 66.0626 25.5988 66.1477 23.8589 66.1477C21.6534 66.1477 18.8184 65.693 15.9667 64.8816C13.7464 64.2499 12.8647 64.2369 12.0045 64.8237C9.71467 66.3851 10.0735 69.5654 12.7417 71.356C18.4693 75.2001 30.0856 74.7598 36.6713 70.4489C40.8426 67.7183 42.3672 63.941 40.2257 61.642C39.6338 61.0064 38.5989 60.4285 38.0703 60.4385C37.933 60.4411 37.3388 60.6444 36.7498 60.8903Z" fill="#403833"/>
</svg>
