<svg width="189" height="81" viewBox="0 0 189 81" fill="none" xmlns="http://www.w3.org/2000/svg">
<path fill-rule="evenodd" clip-rule="evenodd" d="M79.5458 0.0654621C72.1993 1.13737 67.2559 4.69666 64.8576 10.6413C63.3998 14.2539 63.07 18.9834 64.0614 22.0599C64.7709 24.2625 65.8508 26.0638 67.4484 27.7109C70.4163 30.7703 73.8074 32.4007 78.2389 32.8995C80.096 33.1083 80.9221 33.0976 83.257 32.8342C84.829 32.6571 86.1524 32.5958 86.2813 32.6945C87.1157 33.3327 93.6312 33.4064 94.2457 32.7847C94.7403 32.2841 95.076 30.1565 95.3253 25.9413C95.6225 20.9114 95.4391 17.3694 94.8528 16.8166C94.2609 16.2586 91.9287 15.9214 89.5204 16.0455C87.0417 16.173 85.5725 16.4903 84.6999 17.0861C84.1272 17.477 83.9995 17.7412 83.6894 19.1768C83.2558 21.1834 82.9044 21.5455 81.3901 21.5455C78.7803 21.5455 76.6278 20.1016 75.891 17.8572C75.2477 15.8971 76.017 13.5235 77.7021 12.2695C78.7464 11.4925 80.7905 10.847 82.2076 10.847C83.2614 10.847 83.3125 10.873 83.5928 11.5519C83.8505 12.1759 83.9968 12.2745 84.8662 12.4084C86.9529 12.7302 92.247 11.7891 93.2754 10.9135C93.7931 10.4728 93.8797 10.2555 93.8797 9.39864C93.8797 4.80735 91.3498 1.89634 86.1725 0.531051C84.6782 0.137059 80.8832 -0.129785 79.5458 0.0654621ZM53.1146 0.271202C51.2902 0.537429 48.6835 1.25916 48.0953 1.66097L47.4217 2.12101V3.96382C47.4217 4.97729 47.4902 6.59338 47.574 7.55521L47.726 9.304L46.3697 7.76095C43.7601 4.79233 41.7343 2.90652 40.4908 2.28869C39.3109 1.70253 39.228 1.69163 35.9342 1.69471C31.5904 1.69862 28.5087 2.35102 28.1311 3.3468C28.0618 3.52991 28.0049 5.13036 28.0051 6.90343C28.0055 14.3181 29.5326 27.8407 30.8828 32.3868C31.4609 34.3331 31.6367 34.409 35.5276 34.3896C38.923 34.373 40.825 33.9664 41.3577 33.1437C41.6432 32.7028 41.9951 28.3901 42.025 24.9657L42.0338 23.9625L45.9547 27.8488C50.6213 32.474 51.3071 32.9816 53.1627 33.1826C55.7876 33.4671 59.9165 32.9595 60.7876 32.2452L61.2473 31.8683L61.2353 21.3062C61.2224 10.08 60.8304 2.17944 60.2408 1.26739C60.09 1.03408 59.576 0.724858 59.0986 0.580223C58.2195 0.313584 54.234 0.107844 53.1146 0.271202ZM110.665 1.60913C108.314 1.80479 106.904 2.08336 105.954 2.53948C105.399 2.80612 105.095 3.24126 104.269 4.95281C101.364 10.9703 97.6819 23.5523 96.9325 30.0222C96.5564 33.2677 96.8918 33.5056 102.038 33.6414L105.418 33.7304L106.021 32.833C106.353 32.3392 107.05 31.1402 107.57 30.1683C108.961 27.5687 108.896 27.6064 111.896 27.6582C113.28 27.6823 114.587 27.7963 114.8 27.9119C115.308 28.187 115.93 29.512 116.528 31.5924C117.088 33.5407 117.489 34.2427 118.2 34.5164C118.889 34.7812 126.317 34.7653 127.272 34.497C128.686 34.0995 128.737 33.42 127.731 28.3802C125.845 18.9353 123.267 9.76074 121.301 5.49781C119.793 2.23026 119.187 1.91588 113.601 1.5077C113.098 1.47087 111.777 1.51654 110.665 1.60913ZM16.1108 3.05918C12.6323 3.29187 6.12956 4.16112 3.20016 4.78492C0.560897 5.34701 0.256526 5.56653 0.0340967 7.06843C-0.216187 8.75755 0.953095 19.2106 2.17585 26.2162C2.83886 30.0135 3.74484 33.9566 4.25009 35.2418C4.81714 36.6849 5.26464 36.97 6.96153 36.9696C11.97 36.9688 24.4566 35.1332 26.6941 34.0689C27.4535 33.7076 27.5854 33.5461 27.7046 32.8328C27.8853 31.7508 27.6535 29.0698 27.1912 26.8947C26.6341 24.273 26.5233 24.0607 25.625 23.8897C24.9736 23.7659 17.7758 24.4215 16.2861 24.7404C15.9309 24.8166 15.8351 24.7203 15.7615 24.2133C15.6887 23.7115 15.7522 23.5766 16.0945 23.5056C16.3271 23.4574 17.235 23.2787 18.1121 23.1083C19.9596 22.7495 20.2213 22.5798 20.3984 21.6239C20.5759 20.667 19.9551 17.333 19.3881 16.1963L18.9261 15.2704L16.8141 15.2114C14.6821 15.1517 14.3924 15.0448 14.3857 14.3144C14.3832 14.043 14.7362 13.9294 16.1616 13.7428C19.9069 13.253 22.9396 12.6999 23.5049 12.4043C24.0131 12.1383 24.1126 11.9389 24.236 10.9398C24.4838 8.93243 23.9042 3.94057 23.3591 3.38898C22.8315 2.85509 20.6464 2.75571 16.1108 3.05918ZM144.099 4.05866C138.675 4.58968 133.677 7.63216 131.104 11.9698C129.623 14.4658 128.447 18.7608 128.444 21.6817C128.442 24.5337 129.614 27.8656 131.398 30.0837C134.03 33.3552 136.874 35.198 140.964 36.282C142.746 36.7544 143.408 36.82 146.641 36.8449C148.653 36.8604 150.418 36.9501 150.562 37.0443C151.043 37.3591 154.346 37.7973 156.243 37.7981C158.42 37.7992 158.491 37.7434 159.016 35.6387C159.432 33.967 160.104 28.2098 160.259 24.9723C160.413 21.7735 160.317 21.5449 158.591 21.0042C157.689 20.7215 156.71 20.6347 154.367 20.63C149.858 20.6207 149.123 20.9332 148.643 23.0628C148.476 23.8027 148.148 24.6546 147.913 24.9565C147.511 25.4735 147.41 25.4992 146.145 25.4079C144.538 25.2914 143.226 24.7398 142.294 23.7891C139.719 21.1602 140.574 17.0098 144.01 15.464C145.224 14.918 146.986 14.6573 148.135 14.8536C148.828 14.9721 148.964 15.0785 149.018 15.5389C149.119 16.4209 149.777 16.6014 152.903 16.6047C157.72 16.61 159.553 15.9185 159.55 14.0973C159.545 11.4696 158.67 8.96494 157.278 7.59574C155.523 5.86876 152.11 4.44216 148.821 4.06093C146.883 3.83626 146.375 3.83605 144.099 4.05866ZM166.824 7.09579C165.658 7.25215 165.26 8.33044 164.335 13.829C163.039 21.5424 162.197 29.8185 162.196 34.8764C162.194 38.433 162.245 38.519 164.744 39.2007C168.41 40.2008 176.944 41.4484 181.449 41.643C184.907 41.7924 185.179 41.6874 185.678 40.0113C186.129 38.4937 186.59 35.2784 186.591 33.6327C186.593 31.3972 186.515 31.3579 180.17 30.3896C177.963 30.0528 176.135 29.7537 176.107 29.7249C176.079 29.6959 176.105 29.4105 176.166 29.0908C176.272 28.5314 176.312 28.5137 177.216 28.6234C180.44 29.0145 180.431 29.0147 180.866 28.575C181.444 27.9897 181.725 26.8902 181.848 24.7345C181.92 23.4688 181.867 22.6273 181.68 22.0757C181.394 21.2264 180.976 21.0083 178.307 20.3142C177.534 20.1129 177.443 20.0253 177.443 19.4762C177.443 18.947 177.506 18.8773 177.901 18.9661C180.634 19.5828 186.507 20.0704 187.131 19.7325C187.921 19.3048 189.11 14.4524 188.992 12.143C188.933 10.9966 188.901 10.9355 188.187 10.5821C185.934 9.46777 175.56 7.49822 170.53 7.23035C169.468 7.17356 168.324 7.10361 167.989 7.0744C167.653 7.04539 167.129 7.05506 166.824 7.09579ZM113.449 14.9104C113.742 15.2217 114.319 16.1934 114.729 17.0698C115.905 19.5807 115.505 20.1876 112.679 20.1745C111.123 20.1671 110.239 19.9235 109.891 19.4058C109.663 19.0661 109.921 18.0883 110.599 16.7232C111.837 14.2317 112.445 13.8453 113.449 14.9104ZM70.5999 37.8928C68.3581 38.288 67.542 38.5602 66.8897 39.1293L66.3302 39.6173L66.3383 45.3665L66.3465 51.1154L64.124 51.2521C62.9018 51.3272 61.8765 51.363 61.8456 51.3317C61.8147 51.3004 61.684 49.7936 61.5549 47.9831C61.4258 46.1726 61.1919 43.6352 61.0352 42.3446C60.7007 39.5909 60.4629 39.2138 58.7151 38.6688C57.0912 38.1625 51.0265 38.1829 49.1615 38.7011C45.9909 39.5823 44.6865 40.2798 44.2597 41.3226C43.9443 42.0927 44.0981 44.5188 44.7922 49.7318C46.5594 63.0025 48.988 74.8846 50.1514 75.9499C50.8805 76.6177 53.1782 76.7957 56.379 76.4325C59.7974 76.0445 60.8355 75.6797 61.1352 74.7613C61.4721 73.7281 61.7425 71.1989 61.7492 69.0156C61.7568 66.6428 61.5923 66.7945 64.7037 66.2885C65.8219 66.1067 66.93 65.911 67.166 65.8536C67.5739 65.7544 67.6123 65.8851 67.9449 68.4906C68.5665 73.3602 69.0048 74.8841 69.9224 75.3643C70.8217 75.8349 73.7984 76.1289 76.3944 76.0036C79.1065 75.8725 79.9549 75.6232 80.3554 74.8391C81.5152 72.5698 83.1132 55.7736 83.1783 45.1706C83.2098 40.0053 83.1956 39.9594 81.2649 38.9918C78.9749 37.8444 73.8619 37.3173 70.5999 37.8928ZM88.8071 38.6301C86.2016 38.991 85.8873 39.4191 85.5158 43.1142C84.9982 48.2666 85.601 67.4458 86.4385 72.4661C86.8496 74.9302 87.1786 75.5861 88.1341 75.8464C89.7538 76.2877 92.9503 76.4998 99.7759 76.6187C106.711 76.7395 111.066 76.5498 112.859 76.0488C113.907 75.7563 114.161 75.0712 114.452 71.753C114.752 68.3375 114.464 65.0442 113.819 64.5155C113.206 64.0128 111.15 63.7224 108.197 63.7211C106.752 63.7205 104.678 63.6602 103.588 63.5872L101.606 63.4543V62.7901V62.1258L104.173 62.0394C107.123 61.94 107.365 61.8024 107.62 60.082C107.807 58.8241 107.59 55.1815 107.269 54.1843C106.922 53.106 106.439 52.8439 104.327 52.5887C101.539 52.2517 101.606 52.2764 101.606 51.5796V50.9663L106.74 50.9548C112.398 50.9418 113.114 50.8278 113.569 49.8668C114.321 48.2754 114.736 41.6424 114.156 40.4814C113.507 39.1854 108.51 38.5793 97.8444 38.5034C93.595 38.4732 89.5283 38.5301 88.8071 38.6301ZM120.846 40.0899C119.283 40.2931 118.173 40.7453 117.972 41.2609C117.898 41.4502 117.692 43.3179 117.513 45.4113C117.266 48.3034 117.186 51.9843 117.178 60.7389C117.164 75.8748 117.238 76.3159 119.954 77.2452C122.514 78.1212 131.498 78.9529 139.049 79.0127L143.724 79.0498L144.113 78.5665C145.023 77.4355 145.587 74.1437 145.582 69.9972C145.578 66.3992 145.304 64.9477 144.501 64.2641C143.983 63.823 143.65 63.7485 141.718 63.6419C135.408 63.2944 134.156 63.165 133.614 62.8056L133.07 62.4451L133.21 59.5345C133.287 57.9339 133.527 54.0318 133.743 50.8634C133.958 47.695 134.135 44.3409 134.136 43.4095L134.137 41.7164L133.374 41.3296C131.104 40.1783 124.894 39.5638 120.846 40.0899ZM31.1563 41.114C26.503 41.7961 22.9461 46.8354 23.7137 51.6588C24.0477 53.7578 24.9171 55.4277 26.3979 56.8151C27.0755 57.45 27.986 58.1532 28.4213 58.3778C31.0205 59.7199 34.7548 59.7166 37.3632 58.37C38.7061 57.6767 40.3735 55.8127 41.1709 54.1137C41.7857 52.8037 41.9024 52.3139 41.986 50.6953C42.1572 47.38 41.3549 45.285 39.1359 43.2529C37.7607 41.9936 36.4419 41.399 34.3427 41.0918C32.817 40.8684 32.8324 40.8684 31.1563 41.114ZM17.9407 42.3542C12.5869 42.9494 6.4941 43.9822 5.26159 44.5032L4.56625 44.7972L4.67177 46.4931C4.72972 47.4257 4.97492 48.8591 5.21666 49.6786C5.73918 51.45 5.83637 51.4983 8.49515 51.3074L10.2817 51.179L10.4193 52.0499C10.6361 53.4201 11.7007 58.1645 12.043 59.2864C12.5812 61.0494 12.7992 61.2533 14.1466 61.2533C15.6232 61.2533 17.6025 60.8977 18.1668 60.5311C18.8668 60.0764 18.8973 58.514 18.3381 51.7378L18.1897 49.9376H18.7367C19.0376 49.9376 19.9143 49.7925 20.6848 49.615C21.9901 49.3146 22.1018 49.2451 22.312 48.6001C22.8014 47.0998 22.5041 43.722 21.7826 42.5824C21.453 42.0621 20.8755 42.0279 17.9407 42.3542ZM153.757 43.0712C151.488 43.5232 151.13 43.6481 150.503 44.2049C149.436 45.1533 149.213 46.656 148.132 60.2246C147.992 61.9785 147.873 66.5151 147.869 70.3058C147.859 78.4327 147.929 78.8983 149.256 79.5289C150.203 79.9787 152.508 80.4799 155.073 80.7936C158.689 81.2359 159.947 81.0004 160.571 79.7641C160.991 78.931 161.749 76.6171 162.255 74.6264C162.413 74.004 162.624 73.5104 162.725 73.5295C166.93 74.3264 169.919 73.8976 173.25 72.0196C176.727 70.0591 179.223 66.8175 180.591 62.4877C181.057 61.0101 181.144 60.3721 181.148 58.3729C181.152 56.362 181.078 55.8024 180.654 54.6449C179.68 51.9816 178.043 49.859 175.438 47.8835C172.452 45.6179 167.887 44.0419 161.991 43.2406C160.061 42.9784 154.769 42.8694 153.757 43.0712ZM33.9653 48.11C34.7512 48.5168 35.1116 49.1628 35.1165 50.173C35.1277 52.5435 32.1946 53.4271 30.9084 51.4407C30.2237 50.383 30.6191 48.768 31.7136 48.1528C32.2896 47.8292 33.3824 47.8084 33.9653 48.11ZM166.43 55.3985C169.414 56.2954 170.487 59.4232 168.535 61.5357C167.758 62.3768 166.88 62.6934 165.325 62.6934C164.046 62.6934 163.934 62.6541 163.314 61.9894C162.601 61.2241 162.397 60.5383 162.399 58.913C162.401 56.869 163.036 55.6929 164.353 55.2938C165.185 55.042 165.256 55.0457 166.43 55.3985ZM38.3741 63.5816C37.759 63.8386 36.5743 64.4996 35.7413 65.0508C33.648 66.4361 31.0935 67.7014 28.8897 68.4443C27.2935 68.9825 26.7303 69.0714 24.9134 69.0714C22.6105 69.0714 19.6502 68.5965 16.6724 67.7493C14.3539 67.0897 13.4333 67.0761 12.5351 67.6888C10.1441 69.3193 10.5188 72.6401 13.3048 74.5099C19.2856 78.5239 31.4153 78.064 38.2921 73.5627C42.6478 70.7113 44.2398 66.7671 42.0037 64.3665C41.3856 63.7028 40.305 63.0994 39.7529 63.1099C39.6096 63.1125 38.9891 63.3249 38.3741 63.5816Z" fill="white"/>
</svg>
