<svg width="164" height="131" viewBox="0 0 164 131" fill="none" xmlns="http://www.w3.org/2000/svg">
<path d="M29.1875 48.7856C29.1875 45.4849 26.3945 42.6919 23.0938 42.6919H6.84375C3.28906 42.6919 0.75 45.4849 0.75 48.7856C0.75 52.3403 3.28906 54.8794 6.84375 54.8794H23.0938C26.3945 54.8794 29.1875 52.3403 29.1875 48.7856ZM13.6992 16.5396L27.918 24.6646C29.6953 25.9341 31.9805 25.9341 34.0117 24.9185C35.7891 23.6489 37.0586 21.6177 37.0586 19.5864C37.0586 17.3013 35.7891 15.27 34.0117 14.2544L19.793 6.12939C18.0156 4.85986 15.4766 4.85986 13.6992 5.87549C11.668 7.14502 10.6523 9.17627 10.6523 11.2075C10.6523 13.4927 11.9219 15.5239 13.6992 16.5396ZM133.035 25.4263C134.051 25.4263 135.066 25.1724 136.082 24.6646L150.047 16.5396C152.84 14.7622 153.855 11.2075 152.078 8.41455C150.555 5.36768 146.746 4.35205 143.953 6.12939L129.734 14.2544C127.449 15.5239 126.18 18.3169 126.941 21.1099C127.703 23.6489 130.242 25.4263 133.035 25.4263ZM81.7461 130.036C90.8867 130.036 98.25 122.926 98.25 113.786H65.75C65.75 122.926 72.8594 130.036 81.7461 130.036ZM157.156 42.6919H140.906C137.352 42.6919 134.812 45.4849 134.812 48.7856C134.812 52.3403 137.352 54.8794 140.906 54.8794H157.156C160.457 54.8794 163.25 52.3403 163.25 48.7856C163.25 45.4849 160.457 42.6919 157.156 42.6919ZM122.371 52.8481C122.371 33.2974 108.66 17.5552 90.125 13.4927V8.16064C90.125 3.84424 86.3164 0.0356445 82 0.0356445C77.4297 0.0356445 73.875 3.84424 73.875 8.16064V13.4927C55.0859 17.5552 41.375 33.2974 41.375 52.8481C41.375 79.0005 31.9805 86.8716 27.1562 92.2036C25.8867 93.7271 25.125 95.5044 25.125 97.7896C25.125 101.852 28.4258 105.915 33.25 105.915H130.496C135.574 105.915 138.621 101.852 138.875 97.7896C138.875 95.5044 138.113 93.7271 136.59 92.2036C131.766 86.8716 122.371 79.0005 122.371 52.8481Z" fill="white"/>
</svg>
