<svg width="182" height="78" viewBox="0 0 182 78" fill="none" xmlns="http://www.w3.org/2000/svg">
<path fill-rule="evenodd" clip-rule="evenodd" d="M76.6788 0.0626912C69.6433 1.08922 64.9091 4.49786 62.6123 10.1909C61.2162 13.6505 60.9004 18.1799 61.8498 21.1261C62.5293 23.2355 63.5634 24.9605 65.0935 26.538C67.9357 29.4678 71.1833 31.0293 75.4272 31.5069C77.2057 31.7069 77.9968 31.6966 80.2329 31.4444C81.7384 31.2748 83.0057 31.2161 83.1292 31.3107C83.9283 31.9218 90.168 31.9924 90.7564 31.397C91.2302 30.9176 91.5516 28.8801 91.7903 24.8433C92.075 20.0263 91.8994 16.6342 91.3378 16.1048C90.771 15.5704 88.5375 15.2475 86.2311 15.3663C83.8574 15.4885 82.4504 15.7923 81.6147 16.3629C81.0662 16.7372 80.944 16.9902 80.647 18.3651C80.2317 20.2868 79.8952 20.6335 78.445 20.6335C75.9457 20.6335 73.8843 19.2508 73.1787 17.1014C72.5626 15.2242 73.2994 12.9511 74.9132 11.7502C75.9132 11.006 77.8708 10.3879 79.228 10.3879C80.2371 10.3879 80.286 10.4127 80.5545 11.0629C80.8012 11.6605 80.9414 11.7549 81.774 11.8832C83.7723 12.1913 88.8424 11.2901 89.8273 10.4516C90.323 10.0295 90.4059 9.82145 90.4059 9.00081C90.4059 4.60386 87.9832 1.81607 83.025 0.508572C81.5939 0.131258 77.9596 -0.124291 76.6788 0.0626912ZM51.3663 0.259722C49.6192 0.514681 47.1228 1.20587 46.5595 1.59067L45.9144 2.03123V3.79604C45.9144 4.76661 45.98 6.31429 46.0603 7.23541L46.2059 8.91018L44.907 7.43244C42.4079 4.58948 40.4678 2.78349 39.2769 2.19181C38.147 1.63047 38.0675 1.62003 34.9132 1.62298C30.7532 1.62672 27.802 2.25151 27.4404 3.20514C27.374 3.3805 27.3195 4.9132 27.3197 6.61122C27.3201 13.712 28.7825 26.6623 30.0756 31.0159C30.6292 32.8798 30.7976 32.9525 34.5238 32.934C37.7755 32.918 39.597 32.5287 40.1071 31.7408C40.3805 31.3185 40.7176 27.1884 40.7462 23.909L40.7546 22.9483L44.5096 26.67C48.9786 31.0994 49.6353 31.5855 51.4125 31.778C53.9262 32.0505 57.8804 31.5644 58.7145 30.8803L59.1548 30.5194L59.1433 20.4044C59.131 9.65338 58.7556 2.08719 58.191 1.21375C58.0465 0.990314 57.5543 0.694176 57.0971 0.555663C56.2551 0.300311 52.4384 0.10328 51.3663 0.259722ZM106.481 1.54102C104.23 1.72839 102.879 1.99517 101.969 2.43199C101.437 2.68734 101.146 3.10406 100.355 4.74317C97.5733 10.5059 94.0472 22.5554 93.3295 28.7514C92.9693 31.8596 93.2906 32.0873 98.2187 32.2174L101.456 32.3027L102.033 31.4433C102.351 30.9704 103.019 29.8221 103.517 28.8913C104.849 26.4018 104.787 26.4379 107.66 26.4875C108.985 26.5106 110.237 26.6197 110.441 26.7305C110.927 26.9939 111.523 28.2628 112.095 30.2552C112.631 32.121 113.016 32.7933 113.697 33.0554C114.356 33.3089 121.47 33.2938 122.385 33.0368C123.739 32.6562 123.788 32.0054 122.824 27.1789C121.019 18.1338 118.55 9.34759 116.666 5.2651C115.223 2.13585 114.642 1.83479 109.293 1.44388C108.811 1.40861 107.546 1.45235 106.481 1.54102ZM15.9289 2.92969C12.5976 3.15253 6.3701 3.98499 3.5647 4.58239C1.03716 5.12068 0.745668 5.33091 0.532653 6.76924C0.292964 8.38686 1.41275 18.3974 2.58375 25.1065C3.2187 28.7431 4.08633 32.5192 4.57019 33.7501C5.11324 35.1321 5.5418 35.4052 7.16686 35.4048C11.9634 35.404 23.9214 33.6461 26.0642 32.6268C26.7914 32.2808 26.9178 32.1262 27.0319 31.4431C27.205 30.4069 26.983 27.8394 26.5402 25.7563C26.0067 23.2456 25.9006 23.0422 25.0404 22.8785C24.4165 22.7599 17.5234 23.3878 16.0967 23.6932C15.7565 23.7661 15.6648 23.6739 15.5944 23.1884C15.5246 22.7079 15.5854 22.5786 15.9133 22.5106C16.136 22.4645 17.0054 22.2933 17.8454 22.1302C19.6148 21.7866 19.8654 21.624 20.0349 20.7086C20.2049 19.7922 19.6105 16.5993 19.0674 15.5107L18.625 14.6241L16.6024 14.5675C14.5606 14.5104 14.2832 14.4079 14.2767 13.7085C14.2744 13.4486 14.6124 13.3398 15.9775 13.1611C19.5643 12.692 22.4686 12.1624 23.0099 11.8792C23.4967 11.6245 23.5919 11.4336 23.7101 10.4768C23.9475 8.55434 23.3923 3.77377 22.8703 3.24553C22.365 2.73424 20.2725 2.63907 15.9289 2.92969ZM138.5 3.88687C133.305 4.39541 128.519 7.3091 126.054 11.4631C124.636 13.8535 123.51 17.9667 123.508 20.764C123.506 23.4952 124.627 26.6861 126.336 28.8103C128.857 31.9433 131.58 33.7081 135.497 34.7463C137.203 35.1987 137.838 35.2615 140.934 35.2854C142.861 35.3001 144.551 35.386 144.689 35.4763C145.15 35.7777 148.313 36.1974 150.129 36.1982C152.214 36.1992 152.282 36.1458 152.785 34.1302C153.184 32.5293 153.827 27.0158 153.976 23.9153C154.123 20.8518 154.031 20.6329 152.379 20.1151C151.514 19.8444 150.577 19.7613 148.333 19.7567C144.015 19.7479 143.311 20.0472 142.851 22.0866C142.691 22.7952 142.377 23.6111 142.152 23.9001C141.768 24.3952 141.67 24.4199 140.459 24.3324C138.92 24.2209 137.664 23.6926 136.771 22.7822C134.305 20.2645 135.124 16.2898 138.415 14.8095C139.577 14.2866 141.264 14.0369 142.364 14.2249C143.028 14.3384 143.159 14.4403 143.21 14.8812C143.307 15.7259 143.937 15.8987 146.931 15.9018C151.544 15.9069 153.299 15.2447 153.296 13.5006C153.292 10.9841 152.454 8.58547 151.121 7.27423C149.44 5.62035 146.171 4.25413 143.021 3.88904C141.165 3.67388 140.679 3.67368 138.5 3.88687ZM160.263 6.79544C159.146 6.94519 158.765 7.97783 157.879 13.2437C156.638 20.6306 155.832 28.5564 155.83 33.4002C155.829 36.8062 155.877 36.8886 158.27 37.5414C161.781 38.4991 169.954 39.6939 174.269 39.8803C177.581 40.0234 177.841 39.9229 178.318 38.3177C178.751 36.8644 179.192 33.7852 179.193 32.2091C179.195 30.0682 179.121 30.0305 173.044 29.1033C170.93 28.7808 169.179 28.4943 169.152 28.4667C169.126 28.4389 169.151 28.1656 169.209 27.8595C169.311 27.3237 169.349 27.3068 170.214 27.4118C173.302 27.7864 173.294 27.7866 173.71 27.3655C174.264 26.8049 174.533 25.752 174.651 23.6875C174.72 22.4754 174.669 21.6695 174.49 21.1413C174.216 20.3279 173.816 20.1191 171.26 19.4543C170.519 19.2616 170.432 19.1777 170.432 18.6518C170.432 18.145 170.492 18.0782 170.87 18.1633C173.488 18.7539 179.113 19.2208 179.71 18.8973C180.466 18.4877 181.606 13.8407 181.492 11.629C181.436 10.5312 181.406 10.4726 180.721 10.1341C178.564 9.06701 168.629 7.18084 163.812 6.9243C162.795 6.86992 161.7 6.80293 161.378 6.77495C161.057 6.74717 160.555 6.75643 160.263 6.79544ZM109.147 14.2793C109.428 14.5774 109.98 15.508 110.373 16.3473C111.499 18.7519 111.115 19.3331 108.41 19.3205C106.919 19.3134 106.073 19.0801 105.74 18.5844C105.521 18.2591 105.768 17.3226 106.418 16.0153C107.603 13.6293 108.185 13.2592 109.147 14.2793ZM68.1115 36.2888C65.9646 36.6673 65.183 36.928 64.5584 37.473L64.0226 37.9404L64.0303 43.4462L64.0381 48.9518L61.9097 49.0827C60.7393 49.1546 59.7574 49.1889 59.7278 49.1589C59.6982 49.129 59.573 47.6859 59.4494 45.952C59.3257 44.2182 59.1018 41.7882 58.9517 40.5522C58.6314 37.9151 58.4036 37.554 56.7298 37.032C55.1747 36.5471 49.3666 36.5667 47.5806 37.063C44.5442 37.9069 43.295 38.5748 42.8863 39.5735C42.5843 40.311 42.7315 42.6344 43.3962 47.6268C45.0886 60.3357 47.4145 71.7148 48.5286 72.7351C49.2268 73.3746 51.4273 73.5451 54.4926 73.1973C57.7663 72.8257 58.7605 72.4764 59.0475 71.5968C59.3701 70.6073 59.6291 68.1852 59.6355 66.0943C59.6427 63.822 59.4852 63.9672 62.4649 63.4827C63.5358 63.3085 64.597 63.1211 64.823 63.0662C65.2136 62.9712 65.2504 63.0963 65.569 65.5915C66.1642 70.255 66.584 71.7144 67.4627 72.1743C68.3239 72.6249 71.1747 72.9065 73.6608 72.7865C76.258 72.661 77.0706 72.4222 77.4541 71.6713C78.5648 69.498 80.0952 53.4128 80.1575 43.2586C80.1877 38.312 80.1741 38.268 78.3251 37.3414C76.132 36.2425 71.2355 35.7377 68.1115 36.2888ZM85.5481 36.995C83.0529 37.3406 82.7518 37.7506 82.3961 41.2893C81.9004 46.2235 82.4777 64.591 83.2797 69.3987C83.6734 71.7586 83.9885 72.3867 84.9036 72.636C86.4547 73.0586 89.5159 73.2617 96.0526 73.3756C102.694 73.4913 106.865 73.3096 108.582 72.8298C109.585 72.5497 109.828 71.8935 110.108 68.7158C110.395 65.4449 110.119 62.291 109.501 61.7847C108.914 61.3033 106.945 61.0251 104.117 61.0239C102.734 61.0233 100.747 60.9656 99.7034 60.8957L97.805 60.7684V60.1324V59.4962L100.264 59.4134C103.088 59.3182 103.321 59.1864 103.565 57.5388C103.743 56.3342 103.536 52.8458 103.228 51.8907C102.896 50.8581 102.433 50.6071 100.411 50.3628C97.7415 50.04 97.805 50.0637 97.805 49.3963V48.809L102.721 48.798C108.14 48.7855 108.826 48.6764 109.261 47.7561C109.982 46.232 110.379 39.8797 109.824 38.7679C109.203 37.5268 104.417 36.9463 94.2028 36.8736C90.1334 36.8447 86.2387 36.8992 85.5481 36.995ZM116.231 38.3929C114.734 38.5876 113.671 39.0207 113.478 39.5144C113.408 39.6957 113.21 41.4844 113.039 43.4891C112.803 46.2588 112.726 49.7839 112.718 58.168C112.704 72.6632 112.775 73.0856 115.376 73.9756C117.829 74.8145 126.432 75.6109 133.663 75.6683L138.141 75.7037L138.513 75.2409C139.384 74.1578 139.925 71.0053 139.92 67.0344C139.916 63.5887 139.654 62.1986 138.885 61.5439C138.388 61.1215 138.069 61.0501 136.22 60.9481C130.177 60.6153 128.977 60.4914 128.458 60.1471L127.937 59.8019L128.072 57.0145C128.145 55.4816 128.375 51.7448 128.581 48.7105C128.788 45.6762 128.957 42.464 128.958 41.572L128.959 39.9507L128.229 39.5802C126.055 38.4777 120.108 37.8891 116.231 38.3929ZM30.3375 39.3738C25.8812 40.0269 22.4749 44.853 23.2099 49.4722C23.5298 51.4823 24.3624 53.0816 25.7805 54.4102C26.4295 55.0182 27.3014 55.6917 27.7183 55.9068C30.2074 57.1921 33.7837 57.1889 36.2817 55.8993C37.5677 55.2354 39.1645 53.4503 39.9282 51.8232C40.517 50.5687 40.6288 50.0995 40.7088 48.5495C40.8728 45.3745 40.1044 43.3682 37.9793 41.4221C36.6623 40.2161 35.3994 39.6466 33.389 39.3525C31.9279 39.1385 31.9427 39.1385 30.3375 39.3738ZM17.6813 40.5615C12.5541 41.1315 6.71922 42.1206 5.53888 42.6194L4.87296 42.901L4.97403 44.5251C5.02952 45.4183 5.26434 46.791 5.49585 47.5758C5.99626 49.2722 6.08933 49.3185 8.63557 49.1357L10.3465 49.0127L10.4783 49.8468C10.6859 51.159 11.7054 55.7025 12.0333 56.7769C12.5487 58.4653 12.7574 58.6605 14.0478 58.6605C15.4619 58.6605 17.3575 58.3201 17.8978 57.969C18.5682 57.5335 18.5974 56.0373 18.0619 49.5479L17.9198 47.8238H18.4436C18.7317 47.8238 19.5713 47.6849 20.3093 47.5149C21.5593 47.2272 21.6662 47.1606 21.8676 46.5429C22.3362 45.1062 22.0516 41.8713 21.3605 40.78C21.0449 40.2817 20.4919 40.249 17.6813 40.5615ZM147.748 41.2481C145.576 41.681 145.233 41.8006 144.632 42.3338C143.61 43.2421 143.397 44.6812 142.362 57.6754C142.228 59.3551 142.114 63.6996 142.11 67.3299C142.1 75.1128 142.167 75.5587 143.438 76.1626C144.345 76.5933 146.552 77.0733 149.009 77.3738C152.472 77.7974 153.677 77.5718 154.274 76.3878C154.676 75.59 155.403 73.374 155.887 71.4676C156.038 70.8716 156.241 70.3989 156.338 70.4172C160.364 71.1803 163.226 70.7697 166.416 68.9712C169.746 67.0937 172.137 63.9892 173.447 59.8427C173.894 58.4276 173.976 57.8167 173.98 55.9021C173.984 53.9763 173.913 53.4404 173.507 52.3319C172.574 49.7813 171.006 47.7486 168.512 45.8567C165.652 43.687 161.281 42.1777 155.634 41.4103C153.786 41.1593 148.718 41.0548 147.748 41.2481ZM33.0276 46.0736C33.7802 46.4631 34.1254 47.0818 34.1301 48.0492C34.1408 50.3194 31.3319 51.1657 30.1002 49.2633C29.4444 48.2504 29.8231 46.7037 30.8712 46.1146C31.4228 45.8047 32.4694 45.7848 33.0276 46.0736ZM159.885 53.0536C162.743 53.9125 163.771 56.9079 161.901 58.9311C161.157 59.7365 160.316 60.0398 158.828 60.0398C157.602 60.0398 157.495 60.0021 156.902 59.3655C156.219 58.6326 156.023 57.9759 156.025 56.4193C156.027 54.4618 156.635 53.3356 157.897 52.9533C158.693 52.7122 158.761 52.7157 159.885 53.0536ZM37.2498 60.8903C36.6608 61.1364 35.5262 61.7695 34.7285 62.2973C32.7237 63.624 30.2773 64.8357 28.1669 65.5472C26.6382 66.0626 26.0988 66.1477 24.3589 66.1477C22.1534 66.1477 19.3184 65.693 16.4667 64.8816C14.2464 64.2499 13.3647 64.2369 12.5045 64.8237C10.2147 66.3851 10.5735 69.5654 13.2417 71.356C18.9693 75.2001 30.5856 74.7598 37.1713 70.4489C41.3426 67.7183 42.8672 63.941 40.7257 61.642C40.1338 61.0064 39.0989 60.4285 38.5703 60.4385C38.433 60.4411 37.8388 60.6444 37.2498 60.8903Z" fill="#403833"/>
</svg>
