<svg width="421" height="426" viewBox="0 0 421 426" fill="none" xmlns="http://www.w3.org/2000/svg">
<path d="M50.5175 90.3626C45.6209 85.8539 41.6137 75.2219 42.541 69.199C43.015 66.1169 44.2948 63.638 46.8305 60.8923C54.7846 52.2795 61.5678 52.0223 86.6776 59.3822C115.177 67.7359 139.13 75.9977 190.94 95.3423C204.905 100.557 217.417 105.21 218.745 105.685C221.774 106.764 224.99 105.006 225.819 101.815C226.389 99.6218 225.68 98.6613 218.809 92.3162C210.952 85.0602 193.748 72.3116 165.14 52.5475C131.152 29.0663 124.881 19.7507 135.415 8.39117C139.3 4.20032 148.229 -0.0597435 152.929 0.033659C157.891 0.132863 166.543 3.88339 185.776 14.27C252.249 50.1719 305.9 84.8731 340.89 114.596C376.224 144.612 407.978 180.462 414.268 197.437C422.644 220.046 421.983 249.158 412.38 280.732C410.943 285.454 409.351 290.042 407.619 294.472C385.414 353.633 339.425 391.391 314.74 403.614C311.376 405.708 292.24 411.889 276.56 415.833C255.19 421.209 235.913 423.95 210.127 425.28C180.326 426.818 161.557 423.937 152.074 416.371C147.857 413.007 147.203 412 146.713 408.112C145.542 398.845 154.621 386.608 167.362 380.278C170.534 378.702 180.557 375.265 189.633 372.64C222.865 363.028 228.536 358.902 223.833 347.747C221.454 342.102 215.847 336.742 206.124 330.815C190.555 321.325 179.641 317.57 137.219 307.112C95.1025 296.73 65.4427 288.454 39.7746 279.924C21.8934 273.982 15.877 267.223 18.7854 256.348C20.0948 251.451 28.1003 243.119 31.9956 242.598C35.5992 242.116 77.4877 243.787 123.187 246.237C145.084 247.41 164.358 248.032 166.017 247.616C172.855 245.906 173.729 239.765 167.735 235.555C165.776 234.179 138.877 224.046 107.957 213.036C43.1203 189.951 15.882 179.626 11.2785 176.393C6.69086 173.17 1.50812 164.049 0.883076 158.096C-0.00551276 149.632 5.98185 141.44 14.9293 138.879C21.041 137.131 36.2685 139.343 107.834 152.376C161.388 162.131 181.485 164.296 184.776 160.668C189.562 155.391 185.569 152.541 150.344 136.085C141.787 132.089 126.421 125.217 116.196 120.816C65.5065 98.9945 54.1971 93.7504 50.5175 90.3626Z" fill="#F49E7C"/>
</svg>
