<svg width="689" height="587" viewBox="0 0 689 587" fill="none" xmlns="http://www.w3.org/2000/svg">
<path d="M644.296 193.252C654.477 190.598 672.037 194.364 679.25 200.747C682.942 204.013 685.143 207.834 686.624 213.553C691.271 231.492 685.812 240.729 654.555 267.813C619.079 298.554 587.612 323.33 517.591 375.659C498.717 389.764 481.831 402.417 480.064 403.777C476.038 406.88 475.626 412.659 479.16 416.489C481.587 419.122 483.47 419.001 497.78 415.294C514.145 411.055 545.804 399.088 596.543 377.959C656.821 352.86 674.567 352.49 680.66 376.207C682.908 384.956 680.936 400.468 676.792 406.636C672.417 413.147 660.032 421.441 629.778 438.125C525.207 495.787 433.197 537.431 363.764 558.525C293.645 579.827 218.835 591.38 190.891 585.224C153.674 577.024 115.539 551.251 81.7808 511.484C76.7319 505.535 71.9941 499.495 67.5863 493.405C7.9321 413.294 -2.93269 319.871 1.92961 276.604C2.02235 270.341 10.171 239.618 18.3374 215.401C29.4658 182.397 42.3078 154.427 62.5903 119.012C86.0312 78.0821 105.912 55.5949 124.079 49.4589C132.157 46.7306 134.055 46.7232 139.643 49.3963C152.962 55.7648 161.466 78.2982 158.983 100.648C158.366 106.213 154.364 122.475 150.091 136.786C134.45 189.181 135.085 200.247 153.936 203.536C163.474 205.2 175.394 202.331 191.588 194.475C217.518 181.894 231.842 170.597 282.022 123.148C331.841 76.0403 368.205 43.6897 401.495 16.8634C424.686 -1.82472 438.815 -4.0426 450.785 9.12373C456.174 15.0518 460.404 32.8192 457.765 38.4426C455.325 43.6457 417.282 97.8997 374.943 156.554C354.659 184.659 337.35 209.747 336.484 212.308C332.91 222.86 340.325 229.275 351.049 224.907C354.552 223.479 391.025 196.388 432.102 164.7C518.237 98.2536 555.255 70.8746 563.49 67.5199C571.697 64.1775 588.254 65.0882 596.702 69.3479C608.714 75.4052 614.483 90.3699 610.236 104.454C607.334 114.073 591.371 132.424 512.845 216.411C454.08 279.26 434.016 304.124 436.024 311.601C438.946 322.475 446.148 319.605 498.147 286.852C510.778 278.895 533.053 264.345 547.647 254.517C620.003 205.795 636.645 195.246 644.296 193.252Z" fill="#71C2B2"/>
</svg>
