<svg width="784" height="728" viewBox="0 0 784 728" fill="none" xmlns="http://www.w3.org/2000/svg">
<path d="M123.186 121.256C113.395 114.247 93.0889 111.07 82.7646 114.934C77.4811 116.909 73.563 120.09 69.6355 125.593C57.3155 142.855 59.3612 154.963 81.6545 196.718C106.957 244.108 130.421 283.482 183.784 368.102C198.168 390.91 211.023 411.353 212.353 413.531C215.382 418.497 213.454 424.84 208.108 427.484C204.435 429.303 202.472 428.401 188.702 418.574C172.955 407.335 144.033 381.568 98.4826 338.191C44.366 286.66 25.5559 278.989 9.32292 301.833C3.3337 310.258 -0.918397 327.641 0.980132 335.93C2.98546 344.681 12.8179 358.621 38.3041 388.851C126.397 493.335 207.634 575.553 273.175 626.558C339.362 678.066 414.56 721.081 446.941 725.96C490.068 732.457 541.381 720.553 593.756 691.903C601.589 687.617 609.128 683.105 616.334 678.405C712.918 617.265 762.828 521.898 775.372 473.674C777.84 466.945 781.73 430.776 782.932 401.553C784.573 361.726 782.319 326.576 775.166 280.42C766.901 227.077 754.878 194.899 737.982 180.895C730.47 174.668 728.444 173.881 721.378 174.447C704.535 175.791 686.212 196.381 679.701 221.279C678.079 227.478 675.688 246.494 674.386 263.537C669.618 325.933 664.402 337.497 642.912 333.283C632.038 331.15 620.478 323.198 606.396 308.165C583.848 284.091 573.174 266.148 539.012 194.877C505.094 124.118 479.502 74.643 454.931 32.3312C437.814 2.85549 423.626 -5.30719 405.439 3.85365C397.25 7.97814 385.445 25.2279 385.96 32.3185C386.434 38.8783 404.839 112.445 426.03 192.474C436.182 230.82 444.39 264.723 444.266 267.814C443.758 280.555 433.205 284.368 423.538 275.305C420.38 272.343 392.516 228.443 361.617 177.744C296.825 71.4333 268.496 27.0024 261.073 20.042C253.674 13.1058 235.61 7.29074 224.837 8.37883C209.519 9.92636 197.219 23.5505 195.984 40.3402C195.141 51.8086 204.673 77.9603 254.144 199.894C291.167 291.139 302.412 325.932 297.2 333.098C289.62 343.519 283.101 337.499 240.969 281.184C230.736 267.504 212.9 242.826 201.335 226.341C144 144.618 130.542 126.523 123.186 121.256Z" fill="#EA6667"/>
</svg>
