<svg width="16" height="17" viewBox="0 0 16 17" fill="none" xmlns="http://www.w3.org/2000/svg">
<path d="M8 6.38672C6.52344 6.38672 5.64453 7.96875 6.34766 9.19922C7.08594 10.4648 8.87891 10.4648 9.61719 9.19922C9.75781 8.91797 9.86328 8.60156 9.86328 8.25C9.86328 7.23047 9.01953 6.38672 8 6.38672ZM12.3594 4.94531C12.1836 4.45312 11.7969 4.06641 11.3047 3.89062C10.5664 3.57422 8.80859 3.64453 8 3.64453C7.15625 3.64453 5.39844 3.57422 4.66016 3.89062C4.16797 4.06641 3.78125 4.45312 3.60547 4.94531C3.32422 5.68359 3.35938 7.44141 3.35938 8.25C3.35938 9.09375 3.32422 10.8516 3.60547 11.5898C3.78125 12.082 4.16797 12.4688 4.66016 12.6445C5.39844 12.9609 7.15625 12.8906 8 12.8906C8.80859 12.8906 10.5664 12.9609 11.3047 12.6445C11.7969 12.4688 12.1836 12.082 12.3594 11.5898C12.6758 10.8516 12.6055 9.09375 12.6055 8.25C12.6055 7.44141 12.6758 5.68359 12.3594 4.94531ZM8 11.1328C5.75 11.1328 4.37891 8.74219 5.46875 6.80859C6.59375 4.91016 9.37109 4.91016 10.4961 6.80859C10.7422 7.26562 10.8828 7.75781 10.8828 8.25C10.8828 9.86719 9.58203 11.168 8 11.1328ZM10.9883 5.92969C10.4609 5.92969 10.1445 5.36719 10.3906 4.91016C10.6719 4.48828 11.3047 4.48828 11.5508 4.91016C11.6211 5.01562 11.6562 5.15625 11.6562 5.26172C11.6562 5.64844 11.3398 5.92969 10.9883 5.92969ZM14.1875 0.375H1.8125C0.863281 0.375 0.125 1.14844 0.125 2.0625V14.4375C0.125 15.3867 0.863281 16.125 1.8125 16.125H14.1875C15.1016 16.125 15.875 15.3867 15.875 14.4375V2.0625C15.875 1.14844 15.1016 0.375 14.1875 0.375ZM13.5547 10.5703C13.5195 11.4844 13.3086 12.293 12.6758 12.9258C12.0078 13.5938 11.1992 13.8047 10.3203 13.8398C9.37109 13.9102 6.59375 13.9102 5.67969 13.8398C4.76562 13.8047 3.95703 13.5938 3.32422 12.9258C2.65625 12.293 2.44531 11.4844 2.41016 10.5703C2.33984 9.65625 2.33984 6.87891 2.41016 5.92969C2.44531 5.05078 2.65625 4.24219 3.32422 3.57422C3.95703 2.94141 4.76562 2.73047 5.67969 2.69531C6.59375 2.625 9.37109 2.625 10.3203 2.69531C11.1992 2.73047 12.0078 2.94141 12.6758 3.60938C13.3086 4.24219 13.5195 5.05078 13.5547 5.96484C13.625 6.87891 13.625 9.65625 13.5547 10.5703Z" fill="white"/>
</svg>
