<svg width="163" height="156" viewBox="0 0 163 156" fill="none" xmlns="http://www.w3.org/2000/svg">
<path d="M31.211 96.344C27.3971 98.2096 20.1501 98.1281 16.7855 96.1818C15.0636 95.1861 13.8868 93.8513 12.8425 91.7082C9.56641 84.9858 10.9849 80.895 21.1758 67.677C32.7424 52.675 43.2014 40.3532 66.7002 14.0434C73.034 6.95202 78.6983 0.593981 79.288 -0.0857387C80.6314 -1.63577 80.3312 -3.95421 78.6266 -5.18585C77.4555 -6.03279 76.7204 -5.83399 71.3578 -3.22064C65.2255 -0.232115 53.6634 7.03917 35.29 19.4631C13.4617 34.2224 6.47263 35.7912 2.16179 26.8994C0.57116 23.6196 0.107693 17.3265 1.25201 14.5548C2.46043 11.6289 6.6937 7.3557 17.3219 -1.66831C54.0577 -32.8572 87.1095 -56.7038 112.88 -70.6128C138.904 -84.6589 167.566 -95.2257 179.111 -95.0312C194.488 -94.7716 211.637 -87.6353 228.176 -74.6135C230.65 -72.6658 233.008 -70.6565 235.24 -68.6012C265.255 -41.6995 277.042 -5.6212 278.588 11.881C279.053 14.3653 278.293 27.1699 277.005 37.4025C275.249 51.3478 272.412 63.4397 267.23 79.0722C261.24 97.1394 255.18 107.627 248.487 111.51C245.51 113.237 244.76 113.392 242.336 112.783C236.557 111.332 231.388 103.101 230.578 94.0628C230.376 91.8126 230.655 85.06 231.198 79.0575C233.184 57.0811 232.045 52.7552 224.326 52.9657C220.42 53.0723 215.936 55.1625 210.161 59.5678C200.914 66.6224 196.154 72.2386 180.112 95.0276C164.185 117.653 152.396 133.363 141.38 146.642C133.707 155.892 128.296 157.902 122.507 153.654C119.9 151.742 116.802 145.054 117.395 142.618C117.943 140.365 128.64 115.857 140.683 89.265C146.453 76.5231 151.287 65.2129 151.424 64.1307C151.992 59.6706 148.545 57.7281 144.654 60.3153C143.383 61.1608 131.129 74.7996 117.423 90.6252C88.6835 123.81 76.2375 137.607 73.2496 139.593C70.2715 141.573 63.6501 142.541 59.9676 141.533C54.7312 140.1 51.2497 134.644 51.8006 128.734C52.1772 124.696 57.0193 116.159 81.3438 76.6462C99.547 47.0784 105.489 35.636 104.096 32.8398C102.068 28.7731 99.4497 30.4856 81.5097 47.6085C77.1522 51.768 69.5086 59.3082 64.5243 64.3652C39.8133 89.4356 34.0768 94.942 31.211 96.344Z" fill="#5DB368"/>
</svg>
